# File created by Blade
# Date/Time:  Wed Jan 21 16:09:50 2015
#---------------------------------------------------------
:version 1.10
:name HOM
:units
  mass 1.0
  length 1.000000
  angle deg
:documentation
     Acclaim Skeleton File
:root
   axis xyz
   order TX TY TZ RX RY RZ
   position 0.000000 0.000000 0.000000
   orientation 0 0 0
:bonedata
   begin
      id 1
      name Spine_dum
      direction 0.000000 1.000000 0.000000
      length 7.067664
      axis 0.0 0.0 0.0 xyz
   end
   begin
      id 2
      name LeftUpLeg_dum
      direction 1.000000 0.000000 0.000000
      length 4.013002
      axis 0.0 0.0 0.0 xyz
   end
   begin
      id 3
      name RightUpLeg_dum
      direction -1.000000 0.000000 0.000000
      length 4.013002
      axis 0.0 0.0 0.0 xyz
   end
   begin
      id 4
      name Spine
      direction 0.000000 1.000000 0.000000
      length 0.000000
      axis 0.0 0.0 0.0 xyz
      dof rx ry rz
   end
   begin
      id 5
      name Spine_dum1
      direction 0.000000 1.000000 0.000000
      length 15.039886
      axis 0.0 0.0 0.0 xyz
   end
   begin
      id 6
      name Spine_dum2
      direction 0.000000 1.000000 0.000000
      length 10.530368
      axis 0.0 0.0 0.0 xyz
   end
   begin
      id 7
      name Spine_dum3
      direction 0.000000 1.000000 0.000000
      length 10.530368
      axis 0.0 0.0 0.0 xyz
   end
   begin
      id 8
      name Head
      direction 0.000000 1.000000 0.000000
      length 4.527550
      axis 0.0 0.0 0.0 xyz
      dof rx ry rz
   end
   begin
      id 9
      name LeftShoulder
      direction 1.000000 0.000000 0.000000
      length 7.028855
      axis 0.0 0.0 -90.0 xyz
      dof rx ry rz
   end
   begin
      id 10
      name LeftArm
      direction 1.000000 0.000000 0.000000
      length 10.797705
      axis 0.0 0.0 -90.0 xyz
      dof rx ry rz
   end
   begin
      id 11
      name LeftForeArm
      direction 1.000000 0.000000 0.000000
      length 7.907442
      axis 0.0 0.0 -90.0 xyz
      dof ry rz rx
   end
   begin
      id 12
      name LeftHand
      direction 0.000000 0.000000 0.000000
      length 0.000000
      axis 0.0 0.0 -90.0 xyz
      dof rx ry rz
   end
   begin
      id 13
      name LeftHand_dum1
      direction 0.000000 0.000000 0.000000
      length 0.000000
      axis 0.0 0.0 -90.0 xyz
   end
   begin
      id 14
      name LeftHand_dum2
      direction 1.000000 0.000000 0.000000
      length 3.937000
      axis 0.0 0.0 -90.0 xyz
   end
   begin
      id 15
      name LeftHandThumb1
      direction 0.000000 0.000000 1.000000
      length 3.937000
      axis 0.0 0.0 -90.0 xyz
      dof rx rz ry
   end
   begin
      id 16
      name RightShoulder
      direction -1.000000 0.000000 0.000000
      length 7.028855
      axis 0.0 0.0 90.0 xyz
      dof rx ry rz
   end
   begin
      id 17
      name RightArm
      direction -1.000000 0.000000 0.000000
      length 10.797705
      axis 0.0 0.0 90.0 xyz
      dof rx ry rz
   end
   begin
      id 18
      name RightForeArm
      direction -1.000000 0.000000 0.000000
      length 7.907442
      axis 0.0 0.0 90.0 xyz
      dof ry rz rx
   end
   begin
      id 19
      name RightHand
      direction 0.000000 0.000000 0.000000
      length 0.000000
      axis 0.0 0.0 90.0 xyz
      dof rx ry rz
   end
   begin
      id 20
      name RightHand_dum1
      direction 0.000000 0.000000 0.000000
      length 0.000000
      axis 0.0 0.0 90.0 xyz
   end
   begin
      id 21
      name RightHand_dum2
      direction -1.000000 0.000000 0.000000
      length 3.937000
      axis 0.0 0.0 90.0 xyz
   end
   begin
      id 22
      name RightHandThumb1
      direction 0.000000 0.000000 1.000000
      length 3.937000
      axis 0.0 0.0 90.0 xyz
      dof rx rz ry
   end
   begin
      id 23
      name LeftUpLeg
      direction 0.000000 -1.000000 0.000000
      length 16.899758
      axis 0.0 0.0 0.0 xyz
      dof rx ry rz
   end
   begin
      id 24
      name LeftLeg
      direction 0.000000 -1.000000 0.000000
      length 17.389183
      axis 0.0 0.0 0.0 xyz
      dof rx ry rz
   end
   begin
      id 25
      name LeftFoot
      direction 0.000000 -0.258819 0.965926
      length 4.924528
      axis 15.0 0.0 0.0 xyz
      dof rx ry rz
   end
   begin
      id 26
      name LeftToeBase
      direction 0.000000 0.000000 1.000000
      length 2.952750
      axis 0.0 0.0 0.0 xyz
      dof rx ry rz
   end
   begin
      id 27
      name RightUpLeg
      direction 0.000000 -1.000000 0.000000
      length 16.899758
      axis 0.0 0.0 0.0 xyz
      dof rx ry rz
   end
   begin
      id 28
      name RightLeg
      direction 0.000000 -1.000000 0.000000
      length 17.389183
      axis 0.0 0.0 0.0 xyz
      dof rx ry rz
   end
   begin
      id 29
      name RightFoot
      direction 0.000000 -0.258819 0.965926
      length 4.924528
      axis 15.0 0.0 0.0 xyz
      dof rx ry rz
   end
   begin
      id 30
      name RightToeBase
      direction 0.000000 0.000000 1.000000
      length 2.952750
      axis 0.0 0.0 0.0 xyz
      dof rx ry rz
   end
:hierarchy
   begin
      root Spine_dum LeftUpLeg_dum RightUpLeg_dum
      Spine_dum Spine
      LeftUpLeg_dum LeftUpLeg
      RightUpLeg_dum RightUpLeg
      Spine Spine_dum1 Spine_dum2 Spine_dum3
      Spine_dum1 Head
      Spine_dum2 LeftShoulder
      Spine_dum3 RightShoulder
      LeftShoulder LeftArm
      LeftArm LeftForeArm
      LeftForeArm LeftHand
      LeftHand LeftHand_dum1 LeftHand_dum2
      LeftHand_dum1 LeftHandThumb1
      RightShoulder RightArm
      RightArm RightForeArm
      RightForeArm RightHand
      RightHand RightHand_dum1 RightHand_dum2
      RightHand_dum1 RightHandThumb1
      LeftUpLeg LeftLeg
      LeftLeg LeftFoot
      LeftFoot LeftToeBase
      RightUpLeg RightLeg
      RightLeg RightFoot
      RightFoot RightToeBase
   end

# File created by Blade
# Date/Time:  Wed Jan 21 16:09:38 2015
# Frame Rate: 120.000 fps
#------------------------------------------------------
:FULLY-SPECIFIED
:DEGREES
31
root 19.304512 35.134753 -22.279998 -175.325470 -1.913938 -176.391898
Spine -14.771750 -0.028799 4.134148
Head 7.543441 -0.221567 -0.700658
LeftShoulder -14.586499 -36.886985 22.945200
LeftArm -0.181189 1.894028 -6.791465
LeftForeArm 10.336004 -0.000000 -3.395785
LeftHand -10.996616 -0.000000 -3.368824
LeftHandThumb1 -26.253704 0.000000 33.147579
RightShoulder -13.499911 -4.000072 -11.724290
RightArm 5.557012 41.499870 11.205373
RightForeArm -33.610881 0.000000 4.892143
RightHand -7.223832 0.000000 8.186554
RightHandThumb1 -24.326973 -0.000000 -32.862282
LeftUpLeg 7.722296 2.637099 7.405079
LeftLeg -14.427968 -0.000000 0.000000
LeftFoot -0.128516 24.379870 10.541359
LeftToeBase -138.695222 -0.000000 0.000000
RightUpLeg 4.010904 -9.406280 -0.175617
RightLeg -3.559034 -0.000000 0.000000
RightFoot -21.497040 -24.154165 16.945793
RightToeBase 24.283888 -0.000000 -0.000000
32
root 19.302906 35.134065 -22.283517 -175.338742 -1.917359 -176.404013
Spine -14.749827 -0.039387 4.124078
Head 7.575372 -0.223994 -0.691958
LeftShoulder -14.596765 -36.868546 22.921574
LeftArm -0.186593 1.882296 -6.807639
LeftForeArm 10.383915 -0.000000 -3.371547
LeftHand -10.995768 -0.000000 -3.296361
LeftHandThumb1 -26.253704 0.000000 33.147579
RightShoulder -13.499342 -3.997542 -11.713731
RightArm 5.530991 41.487934 11.206631
RightForeArm -33.655767 -0.000000 4.907396
RightHand -7.183573 -0.000000 8.111491
RightHandThumb1 -24.326973 -0.000000 -32.862282
LeftUpLeg 7.738968 2.606795 7.390033
LeftLeg -14.425062 -0.000000 0.000000
LeftFoot -0.117003 24.411725 10.539733
LeftToeBase -138.673043 -0.000000 0.000000
RightUpLeg 4.030192 -9.394509 -0.194700
RightLeg -3.554955 -0.000000 0.000000
RightFoot -21.503454 -24.162862 16.937943
RightToeBase 24.242458 -0.000000 -0.000000
33
root 19.303343 35.133366 -22.287079 -175.344696 -1.920752 -176.410752
Spine -14.739547 -0.046711 4.104968
Head 7.618801 -0.233800 -0.660009
LeftShoulder -14.609678 -36.854550 22.932821
LeftArm -0.233868 1.798731 -6.835130
LeftForeArm 10.494220 -0.000000 -3.267291
LeftHand -11.019981 0.000000 -3.405844
LeftHandThumb1 -26.253704 0.000000 33.147579
RightShoulder -13.503379 -4.006938 -11.693504
RightArm 5.512960 41.457453 11.213326
RightForeArm -33.621932 -0.000000 4.921750
RightHand -7.249001 0.000000 8.133465
RightHandThumb1 -24.326973 -0.000000 -32.862282
LeftUpLeg 7.744812 2.604687 7.383795
LeftLeg -14.414151 -0.000000 0.000000
LeftFoot -0.121830 24.403083 10.558295
LeftToeBase -138.727372 -0.000000 0.000000
RightUpLeg 4.038631 -9.379858 -0.199003
RightLeg -3.545713 -0.000000 0.000000
RightFoot -21.527713 -24.222509 16.853947
RightToeBase 24.402249 -0.000000 -0.000000
34
root 19.303157 35.132474 -22.290748 -175.362533 -1.927431 -176.417527
Spine -14.717724 -0.054809 4.089565
Head 7.664743 -0.253512 -0.636444
LeftShoulder -14.602948 -36.853920 22.915880
LeftArm -0.257570 1.815335 -6.855931
LeftForeArm 10.550986 -0.000000 -3.252047
LeftHand -10.946093 -0.000000 -3.350675
LeftHandThumb1 -26.253704 0.000000 33.147579
RightShoulder -13.505111 -4.011563 -11.669458
RightArm 5.495044 41.431254 11.205046
RightForeArm -33.575661 0.000000 4.910197
RightHand -7.230401 -0.000000 8.117585
RightHandThumb1 -24.326973 -0.000000 -32.862282
LeftUpLeg 7.759809 2.602923 7.377322
LeftLeg -14.401980 -0.000000 0.000000
LeftFoot -0.134368 24.427996 10.587567
LeftToeBase -138.668581 -0.000000 0.000000
RightUpLeg 4.059896 -9.402636 -0.212996
RightLeg -3.532702 -0.000000 0.000000
RightFoot -21.537513 -24.194912 16.816960
RightToeBase 24.430740 -0.000000 -0.000000
35
root 19.303420 35.131793 -22.294289 -175.378866 -1.926611 -176.415691
Spine -14.691879 -0.047015 4.081107
Head 7.712639 -0.268638 -0.607380
LeftShoulder -14.599830 -36.808128 22.869065
LeftArm -0.245804 1.813488 -6.875349
LeftForeArm 10.630801 -0.000000 -3.229062
LeftHand -10.864805 -0.000000 -3.295177
LeftHandThumb1 -26.253704 0.000000 33.147579
RightShoulder -13.525366 -4.003199 -11.656594
RightArm 5.475090 41.414289 11.234556
RightForeArm -33.631167 -0.000000 4.947114
RightHand -7.244173 -0.000000 8.099830
RightHandThumb1 -24.326973 -0.000000 -32.862282
LeftUpLeg 7.778355 2.598582 7.379863
LeftLeg -14.395020 -0.000000 0.000000
LeftFoot -0.120781 24.438887 10.600872
LeftToeBase -138.614150 -0.000000 0.000000
RightUpLeg 4.091180 -9.353005 -0.211641
RightLeg -3.551980 -0.000000 0.000000
RightFoot -21.545438 -24.242882 16.848665
RightToeBase 24.407793 -0.000000 -0.000000
36
root 19.303401 35.131435 -22.296945 -175.396745 -1.937340 -176.420416
Spine -14.659402 -0.063884 4.067427
Head 7.753090 -0.284644 -0.580610
LeftShoulder -14.603243 -36.802805 22.835888
LeftArm -0.256453 1.868567 -6.882565
LeftForeArm 10.606258 -0.000000 -3.183839
LeftHand -10.854782 -0.000000 -3.224310
LeftHandThumb1 -26.253704 0.000000 33.147579
RightShoulder -13.535215 -4.009754 -11.642815
RightArm 5.479019 41.407043 11.286174
RightForeArm -33.676616 -0.000000 4.940748
RightHand -7.245226 -0.000000 8.077536
RightHandThumb1 -24.326973 -0.000000 -32.862282
LeftUpLeg 7.794197 2.564444 7.376146
LeftLeg -14.388175 -0.000000 0.000000
LeftFoot -0.117647 24.449963 10.620161
LeftToeBase -138.621531 -0.000000 0.000000
RightUpLeg 4.102115 -9.304520 -0.215536
RightLeg -3.525219 -0.000000 0.000000
RightFoot -21.568548 -24.305387 16.853253
RightToeBase 24.338877 -0.000000 -0.000000
37
root 19.303430 35.130654 -22.300164 -175.422242 -1.938993 -176.428383
Spine -14.619860 -0.069729 4.042228
Head 7.802058 -0.351536 -0.549798
LeftShoulder -14.609259 -36.762442 22.800310
LeftArm -0.242607 1.927965 -6.920886
LeftForeArm 10.769991 -0.000000 -3.143638
LeftHand -10.861709 0.000000 -2.991580
LeftHandThumb1 -26.253704 0.000000 33.147579
RightShoulder -13.538627 -4.027889 -11.605633
RightArm 5.456419 41.402295 11.295853
RightForeArm -33.636746 -0.000000 4.942291
RightHand -7.222841 0.000000 8.070313
RightHandThumb1 -24.326973 -0.000000 -32.862282
LeftUpLeg 7.816336 2.549399 7.367849
LeftLeg -14.373194 -0.000000 0.000000
LeftFoot -0.113187 24.477489 10.629169
LeftToeBase -138.640235 -0.000000 0.000000
RightUpLeg 4.127238 -9.303952 -0.227759
RightLeg -3.514617 -0.000000 0.000000
RightFoot -21.579404 -24.279855 16.916928
RightToeBase 24.183502 -0.000000 -0.000000
38
root 19.303387 35.130158 -22.304375 -175.448295 -1.935634 -176.434232
Spine -14.584739 -0.067406 4.016066
Head 7.864820 -0.439850 -0.502027
LeftShoulder -14.600540 -36.703042 22.748047
LeftArm -0.223827 1.975429 -6.938876
LeftForeArm 10.864478 -0.000000 -3.122265
LeftHand -10.794919 -0.000000 -2.802166
LeftHandThumb1 -26.253704 0.000000 33.147579
RightShoulder -13.556099 -4.071022 -11.568630
RightArm 5.470668 41.410387 11.353016
RightForeArm -33.606334 -0.000000 4.950073
RightHand -7.263632 -0.000000 8.053442
RightHandThumb1 -24.326973 -0.000000 -32.862282
LeftUpLeg 7.843535 2.542331 7.360081
LeftLeg -14.363150 -0.000000 0.000000
LeftFoot -0.109388 24.502168 10.645928
LeftToeBase -138.641602 -0.000000 0.000000
RightUpLeg 4.153585 -9.272955 -0.238094
RightLeg -3.497877 -0.000000 0.000000
RightFoot -21.609055 -24.323176 16.844532
RightToeBase 24.367753 -0.000000 -0.000000
39
root 19.304326 35.130116 -22.306216 -175.475261 -1.930212 -176.430967
Spine -14.542174 -0.072547 4.001234
Head 7.939412 -0.513411 -0.438704
LeftShoulder -14.594905 -36.633317 22.680718
LeftArm -0.207317 2.067095 -6.950045
LeftForeArm 10.959021 -0.000000 -3.078390
LeftHand -10.679088 -0.000000 -2.502153
LeftHandThumb1 -26.253704 0.000000 33.147579
RightShoulder -13.539908 -4.057685 -11.539960
RightArm 5.427524 41.368735 11.379634
RightForeArm -33.584782 -0.000000 4.973908
RightHand -7.286105 -0.000000 8.031795
RightHandThumb1 -24.326973 -0.000000 -32.862282
LeftUpLeg 7.863671 2.530196 7.363000
LeftLeg -14.342074 -0.000000 0.000000
LeftFoot -0.110473 24.528476 10.671323
LeftToeBase -138.582809 -0.000000 0.000000
RightUpLeg 4.168681 -9.205075 -0.239026
RightLeg -3.466621 -0.000000 0.000000
RightFoot -21.630889 -24.367086 16.855451
RightToeBase 24.353941 -0.000000 -0.000000
40
root 19.303689 35.129967 -22.307611 -175.510313 -1.937417 -176.430625
Spine -14.480048 -0.073783 3.980685
Head 8.003026 -0.557452 -0.359663
LeftShoulder -14.583252 -36.601173 22.605113
LeftArm -0.189851 2.243289 -6.963445
LeftForeArm 11.062356 -0.000000 -3.015993
LeftHand -10.597448 -0.000000 -2.239879
LeftHandThumb1 -26.253704 0.000000 33.147579
RightShoulder -13.543401 -4.061882 -11.489952
RightArm 5.402380 41.263273 11.372607
RightForeArm -33.487902 -0.000000 4.918837
RightHand -7.233132 -0.000000 7.990767
RightHandThumb1 -24.326973 -0.000000 -32.862282
LeftUpLeg 7.885981 2.501856 7.360113
LeftLeg -14.318687 -0.000000 0.000000
LeftFoot -0.074324 24.545087 10.708338
LeftToeBase -138.659413 -0.000000 0.000000
RightUpLeg 4.199044 -9.165970 -0.246704
RightLeg -3.446403 -0.000000 0.000000
RightFoot -21.645322 -24.396621 16.851137
RightToeBase 24.372046 -0.000000 -0.000000
41
root 19.303368 35.130160 -22.309837 -175.551622 -1.932403 -176.427998
Spine -14.419475 -0.068877 3.952547
Head 8.094768 -0.645629 -0.279504
LeftShoulder -14.561548 -36.496774 22.514421
LeftArm -0.201663 2.249594 -6.974430
LeftForeArm 11.264228 0.000000 -2.874337
LeftHand -10.535200 -0.000000 -2.065377
LeftHandThumb1 -26.253704 0.000000 33.147579
RightShoulder -13.530524 -4.081605 -11.432008
RightArm 5.336119 41.285052 11.391286
RightForeArm -33.563899 0.000000 4.972051
RightHand -7.215553 -0.000000 7.974110
RightHandThumb1 -24.326973 -0.000000 -32.862282
LeftUpLeg 7.917980 2.484616 7.359402
LeftLeg -14.292779 -0.000000 0.000000
LeftFoot -0.087444 24.597213 10.732081
LeftToeBase -138.542504 -0.000000 0.000000
RightUpLeg 4.232978 -9.123997 -0.250430
RightLeg -3.424235 -0.000000 0.000000
RightFoot -21.662259 -24.409670 16.879188
RightToeBase 24.316165 -0.000000 -0.000000
42
root 19.302312 35.130406 -22.310446 -175.594273 -1.919840 -176.421850
Spine -14.344792 -0.074117 3.935846
Head 8.157209 -0.741981 -0.212769
LeftShoulder -14.573790 -36.406471 22.440361
LeftArm -0.169491 2.416498 -6.990881
LeftForeArm 11.183117 -0.000000 -2.856687
LeftHand -10.505692 -0.000000 -1.924290
LeftHandThumb1 -26.253704 0.000000 33.147579
RightShoulder -13.499698 -4.077609 -11.383452
RightArm 5.267773 41.193505 11.410341
RightForeArm -33.492270 -0.000000 5.001081
RightHand -7.211773 -0.000000 7.912969
RightHandThumb1 -24.326973 -0.000000 -32.862282
LeftUpLeg 7.943679 2.460242 7.361393
LeftLeg -14.251796 -0.000000 0.000000
LeftFoot -0.057543 24.630271 10.798482
LeftToeBase -138.589633 -0.000000 0.000000
RightUpLeg 4.258567 -9.037499 -0.250818
RightLeg -3.391050 -0.000000 0.000000
RightFoot -21.691215 -24.465013 16.892312
RightToeBase 24.340869 -0.000000 -0.000000
43
root 19.302138 35.131003 -22.311124 -175.635663 -1.905150 -176.413218
Spine -14.277482 -0.063195 3.913472
Head 8.258501 -0.886206 -0.130770
LeftShoulder -14.554146 -36.311469 22.332804
LeftArm -0.132096 2.650392 -6.994681
LeftForeArm 10.930710 -0.000000 -2.884532
LeftHand -10.514879 0.000000 -1.799797
LeftHandThumb1 -26.253704 0.000000 33.147579
RightShoulder -13.476313 -4.068255 -11.316853
RightArm 5.199346 41.113365 11.411274
RightForeArm -33.399129 0.000000 5.001270
RightHand -7.207746 -0.000000 7.814115
RightHandThumb1 -24.326973 -0.000000 -32.862282
LeftUpLeg 7.969267 2.446809 7.365062
LeftLeg -14.212397 -0.000000 0.000000
LeftFoot -0.058838 24.676360 10.832567
LeftToeBase -138.561029 -0.000000 0.000000
RightUpLeg 4.271194 -8.962961 -0.250087
RightLeg -3.334245 -0.000000 0.000000
RightFoot -21.722765 -24.509867 16.917889
RightToeBase 24.325431 -0.000000 -0.000000
